# File created by Blade
# Date/Time:  Tue Apr 07 20:41:02 2015
# Frame Rate: 120.000 fps
#------------------------------------------------------
:FULLY-SPECIFIED
:DEGREES
854
root 2.605394 34.577359 -0.269528 5.892172 -10.627872 -46.270985
Spine 4.875519 21.997136 36.251809
Head 5.834947 -15.221128 2.403849
LeftShoulder -21.141572 19.180212 35.174065
LeftArm 127.145666 -74.441022 -91.275609
LeftForeArm 17.969983 -0.000000 27.614478
LeftHand 12.058299 -0.000000 26.471640
LeftHandThumb1 -26.253704 0.000000 33.147579
RightShoulder -7.875446 36.976423 -32.672153
RightArm 54.768757 77.731726 89.506661
RightForeArm 41.336855 0.000000 60.013014
RightHand 0.682005 0.000000 29.829779
RightHandThumb1 -24.326973 -0.000000 -32.862282
LeftUpLeg -7.911751 4.090848 40.816770
LeftLeg 28.346498 -0.000000 -0.000000
LeftFoot -17.469350 25.060502 -22.915336
LeftToeBase -12.578050 -0.000000 0.000000
RightUpLeg -136.991731 -54.156728 25.059041
RightLeg -11.220514 -0.000000 0.000000
RightFoot 36.289217 -19.724654 15.765189
RightToeBase 21.187594 -0.000000 -0.000000
855
root 2.625538 34.603190 -0.268825 5.794832 -10.770212 -46.191214
Spine 4.850514 21.973340 36.086842
Head 6.293702 -15.198464 2.450267
LeftShoulder -21.134468 19.407493 35.196740
LeftArm 129.420393 -74.046695 -92.964980
LeftForeArm 17.936183 -0.000000 27.860434
LeftHand 12.011880 -0.000000 26.517508
LeftHandThumb1 -26.253704 0.000000 33.147579
RightShoulder -7.804940 36.665928 -32.570975
RightArm 56.446435 77.629203 91.309348
RightForeArm 41.311600 -0.000000 60.058999
RightHand 0.718394 -0.000000 29.833541
RightHandThumb1 -24.326973 -0.000000 -32.862282
LeftUpLeg -7.599994 3.122051 41.023197
LeftLeg 28.409744 -0.000000 -0.000000
LeftFoot -17.225302 23.770842 -23.408271
LeftToeBase -12.842802 -0.000000 0.000000
RightUpLeg -137.175333 -53.915618 25.100944
RightLeg -11.143618 -0.000000 0.000000
RightFoot 36.407557 -19.741801 15.634669
RightToeBase 20.704625 -0.000000 -0.000000
856
root 2.645782 34.622217 -0.270358 5.764063 -10.906929 -46.101964
Spine 4.738390 21.972749 35.857654
Head 6.752343 -15.136649 2.577367
LeftShoulder -21.116347 19.531583 35.305392
LeftArm 130.901792 -73.698934 -93.955469
LeftForeArm 17.975144 -0.000000 28.187925
LeftHand 11.915920 -0.000000 25.987091
LeftHandThumb1 -26.253704 0.000000 33.147579
RightShoulder -7.607971 36.944497 -32.414042
RightArm 55.284604 77.659070 90.211072
RightForeArm 41.366341 -0.000000 60.138472
RightHand 0.708117 -0.000000 29.590899
RightHandThumb1 -24.326973 -0.000000 -32.862282
LeftUpLeg -7.364668 2.232664 41.206683
LeftLeg 28.497886 -0.000000 -0.000000
LeftFoot -16.981528 22.431494 -23.998140
LeftToeBase -13.017891 -0.000000 0.000000
RightUpLeg -137.458532 -53.653982 25.198633
RightLeg -11.021069 -0.000000 0.000000
RightFoot 36.456653 -19.554063 15.320794
RightToeBase 20.625960 -0.000000 -0.000000
857
root 2.664459 34.636958 -0.271495 5.716835 -11.049648 -45.968634
Spine 4.634856 22.018759 35.607460
Head 7.220983 -15.080938 2.642371
LeftShoulder -21.009436 19.639406 35.346090
LeftArm 132.152675 -73.499873 -94.707978
LeftForeArm 17.978390 -0.000000 28.542978
LeftHand 11.722548 -0.000000 25.501335
LeftHandThumb1 -26.253704 0.000000 33.147579
RightShoulder -7.545413 36.717842 -32.304250
RightArm 56.692490 77.569974 91.759391
RightForeArm 41.267896 -0.000000 60.237474
RightHand 0.764506 -0.000000 29.675601
RightHandThumb1 -24.326973 -0.000000 -32.862282
LeftUpLeg -7.139709 1.441645 41.340519
LeftLeg 28.587937 -0.000000 -0.000000
LeftFoot -16.710909 21.105636 -24.801212
LeftToeBase -13.947684 -0.000000 0.000000
RightUpLeg -137.679284 -53.411368 25.196366
RightLeg -10.947997 -0.000000 0.000000
RightFoot 36.513481 -19.481000 15.101325
RightToeBase 20.641678 -0.000000 -0.000000
858
root 2.683042 34.646627 -0.274019 5.645920 -11.164757 -45.835278
Spine 4.561322 22.000412 35.369880
Head 7.619106 -15.016011 2.703625
LeftShoulder -21.084043 18.853426 35.863325
LeftArm 129.713497 -72.800448 -92.278707
LeftForeArm 18.307547 -0.000000 29.170196
LeftHand 11.513939 -0.000000 25.022015
LeftHandThumb1 -26.253704 0.000000 33.147579
RightShoulder -7.409799 36.652096 -32.172256
RightArm 57.188347 77.526814 92.334193
RightForeArm 41.267163 -0.000000 60.326268
RightHand 0.776055 -0.000000 29.652172
RightHandThumb1 -24.326973 -0.000000 -32.862282
LeftUpLeg -6.975361 0.783885 41.465927
LeftLeg 28.760793 -0.000000 -0.000000
LeftFoot -16.507687 19.587180 -25.990544
LeftToeBase -14.743651 -0.000000 0.000000
RightUpLeg -137.892613 -53.185886 25.205207
RightLeg -10.885316 -0.000000 0.000000
RightFoot 36.547612 -19.385738 15.015530
RightToeBase 20.562138 -0.000000 -0.000000
859
root 2.701002 34.651142 -0.283786 5.604649 -11.265863 -45.684183
Spine 4.490347 22.048809 35.103429
Head 7.869917 -14.945813 2.819705
LeftShoulder -21.178200 18.258016 36.270150
LeftArm 128.090071 -72.147577 -90.693953
LeftForeArm 18.640470 -0.000000 29.867484
LeftHand 11.344491 -0.000000 24.517074
LeftHandThumb1 -26.253704 0.000000 33.147579
RightShoulder -7.351857 36.525532 -32.055946
RightArm 57.958347 77.477128 93.151365
RightForeArm 41.162345 -0.000000 60.441817
RightHand 0.757731 0.000000 29.683236
RightHandThumb1 -24.326973 -0.000000 -32.862282
LeftUpLeg -6.931783 0.320369 41.564220
LeftLeg 29.034075 -0.000000 -0.000000
LeftFoot -16.300960 18.150080 -27.086910
LeftToeBase -15.189300 -0.000000 0.000000
RightUpLeg -138.057014 -53.009454 25.151564
RightLeg -10.896544 -0.000000 0.000000
RightFoot 36.586263 -19.381801 15.017349
RightToeBase 20.949534 -0.000000 -0.000000
860
root 2.718841 34.651258 -0.298418 5.536675 -11.319750 -45.552996
Spine 4.471837 22.062112 34.867668
Head 7.980621 -14.912925 3.005663
LeftShoulder -21.227244 16.483140 37.322146
LeftArm 122.392485 -71.212546 -85.661620
LeftForeArm 19.158442 -0.000000 30.873819
LeftHand 11.119091 -0.000000 24.106290
LeftHandThumb1 -26.253704 0.000000 33.147579
RightShoulder -7.230740 36.897823 -31.951183
RightArm 55.886372 77.571112 91.039798
RightForeArm 41.281129 -0.000000 60.533546
RightHand 0.742727 -0.000000 29.660667
RightHandThumb1 -24.326973 -0.000000 -32.862282
LeftUpLeg -6.986912 0.099702 41.700154
LeftLeg 29.433600 -0.000000 -0.000000
LeftFoot -16.132832 16.519211 -28.337748
LeftToeBase -15.249807 -0.000000 0.000000
RightUpLeg -138.206322 -52.858285 25.117182
RightLeg -10.888762 -0.000000 0.000000
RightFoot 36.654445 -19.375918 15.134833
RightToeBase 20.222221 -0.000000 -0.000000
861
root 2.732915 34.650113 -0.319804 5.443372 -11.353211 -45.427588
Spine 4.494280 22.056665 34.662667
Head 8.071808 -14.900220 3.125534
LeftShoulder -21.207973 16.144482 37.550008
LeftArm 121.375926 -71.029031 -84.682766
LeftForeArm 19.329463 -0.000000 31.600004
LeftHand 11.116881 -0.000000 24.309285
LeftHandThumb1 -26.253704 0.000000 33.147579
RightShoulder -7.153533 36.947108 -31.845560
RightArm 55.540430 77.590843 90.682087
RightForeArm 41.297161 -0.000000 60.653945
RightHand 0.723381 -0.000000 29.665356
RightHandThumb1 -24.326973 -0.000000 -32.862282
LeftUpLeg -7.096700 0.072767 41.842843
LeftLeg 29.871668 -0.000000 -0.000000
LeftFoot -15.833921 14.795447 -29.753116
LeftToeBase -15.736592 -0.000000 0.000000
RightUpLeg -138.186081 -52.807926 24.947404
RightLeg -10.974167 -0.000000 0.000000
RightFoot 36.689111 -19.438621 15.304750
RightToeBase 20.016973 -0.000000 -0.000000
862
root 2.745033 34.647628 -0.346867 5.320784 -11.358450 -45.316763
Spine 4.585848 22.056920 34.493429
Head 8.026243 -14.923618 3.281049
LeftShoulder -21.262756 16.125035 37.548821
LeftArm 121.307991 -70.945363 -84.478560
LeftForeArm 19.687515 -0.000000 32.189465
LeftHand 11.012200 -0.000000 24.503391
LeftHandThumb1 -26.253704 0.000000 33.147579
RightShoulder -7.166827 36.976247 -31.791173
RightArm 55.254141 77.579610 90.383843
RightForeArm 41.318356 0.000000 60.756846
RightHand 0.711245 -0.000000 29.638361
RightHandThumb1 -24.326973 -0.000000 -32.862282
LeftUpLeg -7.243420 0.251752 42.019519
LeftLeg 30.328744 -0.000000 -0.000000
LeftFoot -15.498244 13.119151 -30.819413
LeftToeBase -15.577718 -0.000000 0.000000
RightUpLeg -138.187158 -52.719332 24.815645
RightLeg -10.979826 -0.000000 0.000000
RightFoot 36.618654 -19.325389 15.355639
RightToeBase 20.181707 -0.000000 -0.000000
863
root 2.756731 34.643181 -0.378307 5.179189 -11.310548 -45.254319
Spine 4.700553 21.982250 34.406283
Head 7.987288 -14.918158 3.380582
LeftShoulder -21.266323 16.022450 37.589464
LeftArm 120.777684 -70.967305 -83.927073
LeftForeArm 19.784681 -0.000000 32.823339
LeftHand 11.123009 -0.000000 24.657943
LeftHandThumb1 -26.253704 0.000000 33.147579
RightShoulder -7.131773 36.991020 -31.736502
RightArm 55.044123 77.580614 90.148165
RightForeArm 41.483616 -0.000000 60.810358
RightHand 0.772284 -0.000000 29.735906
RightHandThumb1 -24.326973 -0.000000 -32.862282
LeftUpLeg -7.405379 0.565882 42.243969
LeftLeg 30.746774 -0.000000 -0.000000
LeftFoot -15.206717 11.515656 -31.685304
LeftToeBase -14.987052 -0.000000 0.000000
RightUpLeg -138.065291 -52.755252 24.639519
RightLeg -11.048640 -0.000000 0.000000
RightFoot 36.626837 -19.357366 15.509437
RightToeBase 20.336236 -0.000000 -0.000000
864
root 2.766876 34.637112 -0.411167 5.029464 -11.227343 -45.225853
Spine 4.805468 21.904244 34.358746
Head 7.959001 -14.945126 3.490085
LeftShoulder -21.226726 15.927295 37.638285
LeftArm 120.251826 -71.009535 -83.382792
LeftForeArm 19.884928 0.000000 33.382103
LeftHand 11.169433 -0.000000 25.189416
LeftHandThumb1 -26.253704 0.000000 33.147579
RightShoulder -7.099256 36.974870 -31.693241
RightArm 54.986584 77.610894 90.075582
RightForeArm 41.537799 -0.000000 60.861287
RightHand 0.685346 -0.000000 29.560937
RightHandThumb1 -24.326973 -0.000000 -32.862282
LeftUpLeg -7.518525 0.917341 42.498715
LeftLeg 31.054682 -0.000000 -0.000000
LeftFoot -14.853883 9.876832 -32.526015
LeftToeBase -14.582389 -0.000000 0.000000
RightUpLeg -137.925447 -52.809364 24.499828
RightLeg -11.116594 -0.000000 0.000000
RightFoot 36.643169 -19.349533 15.532022
RightToeBase 20.234237 -0.000000 -0.000000
865
root 2.778949 34.628790 -0.442910 4.844227 -11.079760 -45.217074
Spine 4.902002 21.790671 34.346661
Head 7.974314 -15.045285 3.611194
LeftShoulder -21.192617 15.970588 37.658985
LeftArm 120.201905 -71.000840 -83.324774
LeftForeArm 19.955511 -0.000000 33.897749
LeftHand 11.293721 0.000000 25.169849
LeftHandThumb1 -26.253704 0.000000 33.147579
RightShoulder -7.090519 36.963173 -31.651695
RightArm 54.901170 77.641432 89.942266
RightForeArm 41.691298 -0.000000 60.814950
RightHand 0.710195 -0.000000 29.656232
RightHandThumb1 -24.326973 -0.000000 -32.862282
LeftUpLeg -7.563778 1.230344 42.754706
LeftLeg 31.208959 -0.000000 -0.000000
LeftFoot -14.514418 8.399954 -32.817926
LeftToeBase -13.676740 -0.000000 0.000000
RightUpLeg -137.856752 -52.875743 24.469373
RightLeg -11.125459 -0.000000 0.000000
RightFoot 36.561021 -19.361890 15.646766
RightToeBase 20.420129 -0.000000 -0.000000
866
root 2.790720 34.616718 -0.474592 4.668110 -10.925401 -45.188497
Spine 4.962494 21.664960 34.318278
Head 8.065663 -15.112000 3.697406
LeftShoulder -21.127088 15.859553 37.739212
LeftArm 119.588789 -70.941964 -82.752416
LeftForeArm 20.028833 -0.000000 34.398134
LeftHand 11.333185 -0.000000 25.304076
LeftHandThumb1 -26.253704 0.000000 33.147579
RightShoulder -7.082400 36.939742 -31.621113
RightArm 55.170431 77.651493 90.217058
RightForeArm 41.775266 0.000000 60.741863
RightHand 0.712320 0.000000 29.624257
RightHandThumb1 -24.326973 -0.000000 -32.862282
LeftUpLeg -7.495170 1.469351 42.960155
LeftLeg 31.125384 -0.000000 -0.000000
LeftFoot -14.295363 6.970324 -32.881487
LeftToeBase -12.545046 -0.000000 0.000000
RightUpLeg -137.808230 -52.937770 24.447085
RightLeg -11.156247 -0.000000 0.000000
RightFoot 36.518918 -19.412267 15.639340
RightToeBase 21.016781 -0.000000 -0.000000
